<svg xmlns="http://www.w3.org/2000/svg" aria-hidden="true" data-bbox="21.63 25 656.752 250" data-type="color" viewBox="21.63 25 656.752 250"><defs/><path fill="#39f" d="M135 168.16a46.62 46.62 0 0 0 17.62-11.59c10.05-10.37 13.31-26 10.54-39.86a32.83 32.83 0 0 0-3.67-9.84 32.4 32.4 0 0 0-6.83-8c-5.42-4.62-12.23-7.4-19.14-9.56-7-2-14.29-3.45-21.43-5.23a56.34 56.34 0 0 1-10.58-3.58 13.38 13.38 0 0 1-4.53-3.33 7.58 7.58 0 0 1-1.61-5.26 9.46 9.46 0 0 1 1.61-5.83 11.72 11.72 0 0 1 4.8-3.9 24.63 24.63 0 0 1 12.19-1.86 19.91 19.91 0 0 1 11.78 4.35 18.66 18.66 0 0 1 5.74 9.71L147 70.27c5.13-1.36 10.26-2.74 15.42-4a45.63 45.63 0 0 0-5.74-14.45A44 44 0 0 0 145 39.51a51.23 51.23 0 0 0-15.59-7.27c-1.12-.33-2.24-.63-3.38-.89a63.16 63.16 0 0 0-28.1 0 57.91 57.91 0 0 0-7.19 2.08 46.08 46.08 0 0 0-18.08 11.21C62.57 54.73 59.29 70.43 62.91 84a32.14 32.14 0 0 0 11.43 17.14c5.5 4.47 12.3 7.13 19.14 9.27 6.92 1.94 14.19 3.35 21.29 5.11a37.35 37.35 0 0 1 10.36 4 11.72 11.72 0 0 1 4 3.91 10.09 10.09 0 0 1 1.17 5.36 11.12 11.12 0 0 1-1.56 6.36 12.29 12.29 0 0 1-5 4.4 25 25 0 0 1-13.19 2 22.25 22.25 0 0 1-2.63-.45l19.85 19.9zM21.63 77.22v94.95h94.95L21.63 77.22zM630.89 148.43c-7.76 0-14.46-5.37-17.7-13.18h64a47.49 47.49 0 1 0-5.1 13.05l-27.78-6.16a18 18 0 0 1-13.42 6.29zm0-47.47c7.77 0 14.46 5.38 17.7 13.19h-35.4c3.24-7.81 9.94-13.15 17.7-13.15zM356.59 77.22a38.53 38.53 0 0 0-21.1 6.4h-3.16v-6.4h-28.49v174h31.65v-85.45a38.45 38.45 0 0 0 21.1 6.4c23.31 0 42.2-21.25 42.2-47.47s-18.89-47.48-42.2-47.48zm-4.48 67.26a19.78 19.78 0 1 1 19.78-19.78 19.78 19.78 0 0 1-19.78 19.78zM471.32 77.22a35.43 35.43 0 0 0-19.78 6V29.75h-31.65v142.42h31.65v-55.39a11.87 11.87 0 0 1 23.74 0v55.39h31.65v-59.34a35.61 35.61 0 0 0-35.61-35.61zM562.31 77.22v94.95h-31.65V77.22h31.65zM563.9 42.41c0 9.615-7.795 17.41-17.41 17.41s-17.41-7.795-17.41-17.41S536.875 25 546.49 25s17.41 7.795 17.41 17.41zM185.16 77.22v94.95h94.94V77.22zm47.47 67.26a19.78 19.78 0 1 1 19.78-19.78 19.79 19.79 0 0 1-19.78 19.78zM208.89 188h47.47v15.82h-47.47V188z" data-color="1"/><path fill="#39f" d="M605 231.48V211.7h11.87v-7.91H605v-11.87h-7.91v11.87h-7.92v7.91h7.92v19.78c0 19.78 8.85 19.78 19.78 19.78v-7.91c-6.52 0-11.87 0-11.87-11.87zM354.07 238.51l7.69-1.82c1.63 5.28 5.47 7.78 10.95 7.78 5.86 0 9.61-2.88 9.61-6.92 0-3.17-2.31-5.19-9.13-6.53l-5.48-1.02c-8.93-1.73-13.16-5.76-13.16-12.3 0-8 6.72-13.84 17.58-13.84 9.42 0 15.86 4.42 17.4 11.82l-7.79 1.83c-1.44-4.71-4.9-6.83-10-6.83-5.67 0-9 2.6-9 6.54 0 2.79 1.64 4.52 9 6l5.48 1.06c9.13 1.73 13.26 5.76 13.26 12.68 0 8.46-6.63 14.41-17.78 14.41-9.79-.08-17.1-4.78-18.63-12.86z" data-color="1" opacity=".5"/><g opacity=".5"><path fill="#39f" d="M522.75 203.79v47.47h-7.91v-47.47h7.91zM524.07 187.98a5.27 5.27 0 1 1-10.54 0 5.27 5.27 0 0 1 10.54 0z" data-color="1"/></g><path fill="#39f" d="M424.19 203.79a23.74 23.74 0 1 0 23.74 23.74 23.73 23.73 0 0 0-23.74-23.74zm0 39.56A15.83 15.83 0 1 1 440 227.53a15.82 15.82 0 0 1-15.81 15.82zM481.64 243.35a15.83 15.83 0 1 1 13.65-23.7l6.89-4a23.74 23.74 0 1 0 0 23.71l-6.89-4a15.77 15.77 0 0 1-13.65 7.99zM558.36 243.35a15.8 15.8 0 0 1-15.27-11.87h-.06 38.7a23.19 23.19 0 0 0 .35-3.94 23.74 23.74 0 1 0-4.08 13.29l-8.36-2.24a15.77 15.77 0 0 1-11.28 4.76zm0-31.65a15.79 15.79 0 0 1 15.26 11.87h-30.53a15.8 15.8 0 0 1 15.27-11.87zM644.31 268.34l23.49-64.55h-8.42l-13.07 35.9-13.07-35.9h-8.42l17.28 47.47-8.64 23.74h8.42l2.43-6.66z" data-color="1" opacity=".5"/></svg>